<?xml version="1.0" encoding="utf-8"?>
<!-- Generator: Adobe Illustrator 23.0.3, SVG Export Plug-In . SVG Version: 6.00 Build 0)  -->
<svg version="1.1" id="Layer_1" xmlns="http://www.w3.org/2000/svg" xmlns:xlink="http://www.w3.org/1999/xlink" x="0px" y="0px"
	 viewBox="0 0 552.8 205.3" style="enable-background:new 0 0 552.8 205.3;" xml:space="preserve">
<style type="text/css">
	.st0{fill:#FFFFFF;}
	.st1{clip-path:url(#SVGID_2_);}
	.st2{clip-path:url(#SVGID_4_);}
	.st3{fill:none;}
	.st4{clip-path:url(#SVGID_6_);}
	.st5{fill:none;stroke:#FFFFFF;stroke-miterlimit:10;}
	.st6{clip-path:url(#SVGID_8_);}
	.st7{fill:none;stroke:#FFFFFF;stroke-width:4;stroke-miterlimit:10;}
	.st8{clip-path:url(#SVGID_10_);fill:none;stroke:#FFFFFF;stroke-width:4;stroke-miterlimit:10;}
	.st9{clip-path:url(#SVGID_12_);}
	.st10{clip-path:url(#SVGID_14_);fill:none;stroke:#FFFFFF;stroke-width:4;stroke-miterlimit:10;}
	.st11{fill:none;stroke:#FDFEFF;stroke-width:4;stroke-miterlimit:10;}
</style>
<title>rs_school_js</title>
<path class="st0" d="M133,167.2l24.2,7.3c-1.3,6.1-4,11.9-7.7,17c-3.4,4.5-7.9,8-13,10.3c-5.2,2.3-11.8,3.5-19.8,3.5
	c-9.7,0-17.7-1.4-23.8-4.2c-6.2-2.8-11.5-7.8-16-14.9c-4.5-7.1-6.7-16.2-6.7-27.3c0-14.8,3.9-26.2,11.8-34.1s19-11.9,33.4-11.9
	c11.3,0,20.1,2.3,26.6,6.8c6.4,4.6,11.2,11.6,14.4,21l-24.4,5.4c-0.6-2.1-1.5-4.2-2.7-6c-1.5-2.1-3.4-3.7-5.7-4.9
	c-2.3-1.2-4.9-1.7-7.5-1.7c-6.3,0-11.1,2.5-14.4,7.6c-2.5,3.7-3.8,9.6-3.8,17.6c0,9.9,1.5,16.7,4.5,20.4s7.2,5.5,12.7,5.5
	c5.3,0,9.3-1.5,12-4.4C129.8,177.1,131.8,172.8,133,167.2L133,167.2z M189.5,114.4h27.6v31.3h30.2v-31.3h27.8v89.4h-27.8v-36.2
	h-30.2v36.2h-27.6C189.5,203.8,189.5,114.4,189.5,114.4z"/>
<path class="st0" d="M482.1,114.4h27.6v67.4h43.1v22H482v-89.4H482.1z"/>
<g>
	<path class="st0" d="M317.5,112.8c-14.5,0-25.9,4.1-34,12.2c-8.1,8.1-12.2,19.5-12.2,34.1c0,10.5,2.1,19.2,6.2,26.2
		c3.7,6.5,9.3,11.8,16.1,15.2c6.6,3.2,14.9,4.8,25,4.8c9.9,0,18.2-1.9,24.9-5.6c6.5-3.6,11.8-9,15.2-15.6c3.5-6.7,5.3-15.2,5.3-25.7
		c0-14.4-4-25.6-12.1-33.6C343.8,116.8,332.4,112.8,317.5,112.8z M331.4,178.8c-3.3,3.9-7.9,5.8-13.8,5.8c-5.8,0-10.4-2-13.7-5.9
		c-3.3-4-5-10.5-5-19.5v0c0-9.1,1.7-15.6,5.1-19.5c3.4-3.9,8.3-6.1,13.4-5.9c5.8,0,10.4,1.9,13.8,5.8c3.4,3.8,5.1,10,5.1,18.4
		C336.3,168,334.7,174.9,331.4,178.8z"/>
	<path class="st0" d="M472.9,124.8c-6.6-6.6-15.6-10.5-27-11.6c-12.9,8-27.1,11.5-40.2,10.7c-0.4,0.4-0.8,0.8-1.2,1.1
		c-8.1,8.1-12.2,19.5-12.2,34.1c0,10.5,2.1,19.2,6.2,26.2c3.7,6.5,9.3,11.8,16.1,15.2c6.6,3.2,14.9,4.8,25,4.8
		c9.9,0,18.2-1.9,24.9-5.6c6.5-3.6,11.8-9,15.2-15.6c3.5-6.7,5.3-15.2,5.3-25.7C485,144,480.9,132.8,472.9,124.8z M452.4,178.8
		c-3.3,3.9-7.9,5.8-13.8,5.8c-5.8,0-10.4-2-13.7-5.9c-3.3-4-5-10.5-5-19.5v0c0-9.1,1.7-15.6,5.1-19.5c3.3-3.9,8.3-6.1,13.4-5.9
		c5.8,0,10.4,1.9,13.8,5.8c3.4,3.8,5.1,10,5.1,18.4C457.3,168,455.7,174.9,452.4,178.8z"/>
</g>
<g>
	<path class="st0" d="M66.2,151.7c-5.3-2.7-13.9-5.3-26-7.9c-4.9-1-8-2.1-9.3-3.3c-1.2-0.9-2-2.3-2-3.8c-0.1-2,0.8-3.8,2.4-5
		c1.6-1.4,4-2.1,7.2-2.1c3.9-0.1,7,0.8,9.2,2.7c2.3,1.9,3.7,4.8,4.4,8.8l26-1.5c-1.1-9.3-4.6-16-10.6-20.3s-14.7-6.4-26.1-6.4
		c-9.3,0-16.7,1.2-22,3.5c-4.9,1.9-9,5.3-12,9.6c-2.6,3.8-4,8.4-4,13c-0.2,6.7,2.7,13,7.8,17.3c5.1,4.6,13.8,8.2,25.9,10.9
		c7.5,1.6,12.2,3.4,14.2,5.2c1.9,1.5,3,3.8,3,6.2c0,2.5-1.2,4.8-3.2,6.4c-2.1,1.9-5.2,2.8-9.1,2.8c-5.3,0-9.4-1.9-12.2-5.5
		c-1.8-2.3-2.9-5.5-3.5-9.8L0,174.2v0c0.8,9,4.1,16.4,10,22.4c5.9,5.9,16.4,8.8,31.6,8.8c8.6,0,15.8-1.3,21.5-3.8
		c5.4-2.3,10-6.1,13.3-11c3.1-4.7,4.8-10.2,4.8-15.8c0-4.6-1.2-9.2-3.6-13.2C75.3,157.7,71.5,154.4,66.2,151.7z"/>
	<path class="st0" d="M365,58.7c-0.5-1.2-1.1-2.4-1.8-3.6c-2.3-3.9-6.1-7.2-11.4-9.9c-5.3-2.7-13.9-5.3-26-7.9c-4.9-1-8-2.1-9.3-3.3
		c-1.2-0.9-2-2.3-2-3.8c-0.1-2,0.9-3.8,2.4-5c1.6-1.3,4-2,7.2-2c3.9,0,6.9,0.9,9.2,2.8c2.3,1.9,3.7,4.8,4.4,8.8l26-1.5
		C362.6,24,359,17.2,353,13c-6-4.3-14.7-6.4-26.1-6.4c-9.3,0-16.7,1.2-22,3.5c-4.9,1.9-9,5.3-12,9.6c-2.6,3.8-4,8.4-4,13
		c-0.2,6.7,2.7,13,7.8,17.3c5.1,4.6,13.8,8.2,25.9,10.9c7.4,1.6,12.1,3.4,14.1,5.2c1.9,1.5,3,3.8,3,6.2c0,2.5-1.2,4.9-3.2,6.4
		c-2.1,1.9-5.2,2.8-9.1,2.8c-5.3,0-9.3-1.8-12.2-5.4c-1.8-2.3-2.9-5.5-3.5-9.8L285.4,68c0.7,9,4.2,16.4,10.1,22.3
		c5.9,5.9,16.4,8.8,31.6,8.8c8.6,0,15.8-1.3,21.5-3.8c5.3-2.3,9.8-6,13.1-10.7C360.6,76.2,361.8,67.3,365,58.7z"/>
	<path class="st0" d="M77.1,66.2c-1.3-1.7-2.7-3.3-4.4-4.7c-2.2-1.4-4.7-2.6-7.2-3.3c3.4-0.6,6.7-1.8,9.7-3.5
		c7.7-4.4,12.2-12.8,11.9-21.6c0.1-5.2-1.3-10.2-4.2-14.5c-2.6-3.9-6.5-6.8-10.9-8.2c-4.5-1.5-11.1-2.2-19.6-2.2H6.3v89.3H34V61.2
		h2.4c2.4,0,4.8,0.7,6.8,2.1c1.5,1.1,3.1,3.4,5,6.9L63,97.7h31.4L81,71.8C79.9,69.8,78.6,67.9,77.1,66.2z M57.5,40.4
		c-1.1,1.5-2.7,2.5-4.5,2.8c-2.4,0.6-4.8,1-7.3,1.2H34V26.3h12.2c5,0,8.5,0.8,10.3,2.3C59.8,31.7,60.2,36.8,57.5,40.4z"/>
</g>
<g>
	<defs>
		
			<ellipse id="SVGID_1_" transform="matrix(0.7986 -0.6018 0.6018 0.7986 43.5396 266.4327)" cx="419.9" cy="68.2" rx="63" ry="51.8"/>
	</defs>
	<clipPath id="SVGID_2_">
		<use xlink:href="#SVGID_1_"  style="overflow:visible;"/>
	</clipPath>
	<g class="st1">
		<defs>
			
				<rect id="SVGID_3_" x="330.3" y="-13.9" transform="matrix(0.7986 -0.6018 0.6018 0.7986 43.3043 266.7111)" width="179.8" height="165.1"/>
		</defs>
		<clipPath id="SVGID_4_">
			<use xlink:href="#SVGID_3_"  style="overflow:visible;"/>
		</clipPath>
		<g id="Layer_1-2" class="st2">
			
				<ellipse transform="matrix(0.7986 -0.6018 0.6018 0.7986 43.5396 266.4327)" class="st3" cx="419.9" cy="68.2" rx="63" ry="51.8"/>
			<g>
				<defs>
					
						<ellipse id="SVGID_5_" transform="matrix(0.7986 -0.6018 0.6018 0.7986 43.5396 266.4327)" cx="419.9" cy="68.2" rx="63" ry="51.8"/>
				</defs>
				<clipPath id="SVGID_6_">
					<use xlink:href="#SVGID_5_"  style="overflow:visible;"/>
				</clipPath>
				<g class="st4">
					<path class="st5" d="M338.7,65.6l100.5-75.8l62.4,82.8l-100.5,75.8L338.7,65.6z"/>
					<g>
						<defs>
							
								<rect id="SVGID_7_" x="357.2" y="17.3" transform="matrix(0.7986 -0.6018 0.6018 0.7986 42.9929 266.7985)" width="125.9" height="103.7"/>
						</defs>
						<clipPath id="SVGID_8_">
							<use xlink:href="#SVGID_7_"  style="overflow:visible;"/>
						</clipPath>
						<g class="st6">
							
								<ellipse transform="matrix(0.7986 -0.6018 0.6018 0.7986 43.5396 266.4327)" class="st7" cx="419.9" cy="68.2" rx="63" ry="51.8"/>
						</g>
						<use xlink:href="#SVGID_7_"  style="overflow:visible;fill:none;stroke:#FFFFFF;stroke-miterlimit:10;"/>
					</g>
					<g>
						<defs>
							
								<rect id="SVGID_9_" x="357.3" y="17.3" transform="matrix(0.2756 -0.9613 0.9613 0.2756 237.9302 454.0353)" width="125.9" height="103.7"/>
						</defs>
						<clipPath id="SVGID_10_">
							<use xlink:href="#SVGID_9_"  style="overflow:visible;"/>
						</clipPath>
						<path class="st8" d="M338.7,65.6l100.5-75.8l62.4,82.8l-100.5,75.8L338.7,65.6z"/>
						<use xlink:href="#SVGID_9_"  style="overflow:visible;fill:none;stroke:#FFFFFF;stroke-miterlimit:10;"/>
					</g>
					
						<ellipse transform="matrix(0.7986 -0.6018 0.6018 0.7986 43.5396 266.4327)" class="st7" cx="419.9" cy="68.2" rx="63" ry="51.8"/>
					<path class="st5" d="M338.7,65.6l100.5-75.8l62.4,82.8l-100.5,75.8L338.7,65.6z"/>
					<g>
						<defs>
							
								<rect id="SVGID_11_" x="357.2" y="17.3" transform="matrix(0.7986 -0.6018 0.6018 0.7986 42.9929 266.7985)" width="125.9" height="103.7"/>
						</defs>
						<clipPath id="SVGID_12_">
							<use xlink:href="#SVGID_11_"  style="overflow:visible;"/>
						</clipPath>
						<g class="st9">
							
								<ellipse transform="matrix(0.7986 -0.6018 0.6018 0.7986 43.5396 266.4327)" class="st7" cx="419.9" cy="68.2" rx="63" ry="51.8"/>
						</g>
						<use xlink:href="#SVGID_11_"  style="overflow:visible;fill:none;stroke:#FFFFFF;stroke-miterlimit:10;"/>
					</g>
					<g>
						<defs>
							
								<rect id="SVGID_13_" x="357.3" y="17.3" transform="matrix(0.2756 -0.9613 0.9613 0.2756 237.9302 454.0353)" width="125.9" height="103.7"/>
						</defs>
						<clipPath id="SVGID_14_">
							<use xlink:href="#SVGID_13_"  style="overflow:visible;"/>
						</clipPath>
						<path class="st10" d="M338.7,65.6l100.5-75.8l62.4,82.8l-100.5,75.8L338.7,65.6z"/>
						<use xlink:href="#SVGID_13_"  style="overflow:visible;fill:none;stroke:#FFFFFF;stroke-miterlimit:10;"/>
					</g>
					<path class="st7" d="M298.7,56.8L442.3-51.4l99.4,131.9L398.1,188.7L298.7,56.8z"/>
				</g>
			</g>
			
				<ellipse transform="matrix(0.7986 -0.6018 0.6018 0.7986 43.5396 266.4327)" class="st11" cx="419.9" cy="68.2" rx="63" ry="51.8"/>
			<path class="st0" d="M391.8,61.6l10-7l12.3,17.5c2.1,2.8,3.7,5.8,4.9,9.1c0.7,2.5,0.5,5.2-0.5,7.6c-1.3,3-3.4,5.5-6.2,7.3
				c-3.3,2.3-6.1,3.6-8.5,4c-2.3,0.4-4.7,0-6.9-1c-2.4-1.2-4.5-2.9-6.1-5.1l8.6-8c0.7,1.1,1.6,2.1,2.6,2.9c0.7,0.5,1.5,0.8,2.4,0.8
				c0.7,0,1.4-0.3,1.9-0.7c1-0.6,1.7-1.8,1.6-3c-0.3-1.7-1-3.4-2.1-4.7L391.8,61.6L391.8,61.6z M421.8,72.7l9.1-7.2
				c1,1.2,2.3,2.1,3.7,2.6c2,0.6,4.1,0.2,5.8-1.1c1.2-0.8,2.2-1.9,2.6-3.3c0.6-1.8-0.4-3.8-2.2-4.4c-0.3-0.1-0.6-0.2-0.9-0.2
				c-1.2-0.1-3.3,0.4-6.4,1.7c-5.1,2.1-9.1,2.9-12.1,2.6c-2.9-0.3-5.6-1.8-7.2-4.3c-1.2-1.7-1.8-3.7-1.9-5.7c0-2.3,0.6-4.6,1.9-6.5
				c1.9-2.7,4.2-5,7-6.8c4.2-2.9,7.9-4.3,11.1-4.3s6.2,1.5,9,4.6l-9,7.1c-1.8-2.3-5.2-2.8-7.5-1l-0.3,0.3c-1,0.6-1.7,1.5-2.1,2.6
				c-0.3,0.8-0.1,1.7,0.4,2.4c0.4,0.5,1,0.9,1.7,0.9c0.8,0.1,2.2-0.3,4.2-1.2c5-2.1,8.8-3.3,11.4-3.7c2.2-0.4,4.5-0.2,6.6,0.7
				c1.9,0.8,3.5,2.2,4.6,3.9c1.4,2,2.2,4.4,2.3,6.9c0.1,2.6-0.6,5.1-2,7.3c-1.8,2.7-4.1,5-6.8,6.8c-5.5,3.8-10,5.4-13.6,4.8
				C427.3,77.6,424.1,75.6,421.8,72.7L421.8,72.7z"/>
		</g>
	</g>
</g>
</svg>
